<svg xmlns="http://www.w3.org/2000/svg" xmlns:xlink="http://www.w3.org/1999/xlink" width="631.318" height="594.592" viewBox="0 0 631.318 594.592">
  <defs>
    <clipPath id="clip-path">
      <path id="Clip_2" data-name="Clip 2" d="M0,0H631.318V594.591H0Z" fill="none"/>
    </clipPath>
    <clipPath id="clip-path-2">
      <path id="Clip_8" data-name="Clip 8" d="M14.49,7.157V14.5H7.16A7.156,7.156,0,0,0,0,21.653H0A7.156,7.156,0,0,0,7.16,28.81H14.49v7.336A7.155,7.155,0,0,0,21.648,43.3h0a7.156,7.156,0,0,0,7.159-7.157h0V28.81h7.339A7.156,7.156,0,0,0,43.3,21.653h0A7.156,7.156,0,0,0,36.145,14.5H28.806V7.157A7.155,7.155,0,0,0,21.648,0h0A7.154,7.154,0,0,0,14.49,7.157" fill="none"/>
    </clipPath>
    <linearGradient id="linear-gradient" y1="0.5" x2="1" y2="0.5" gradientUnits="objectBoundingBox">
      <stop offset="0" stop-color="#3ddded"/>
      <stop offset="1" stop-color="#3ddded"/>
    </linearGradient>
    <clipPath id="clip-path-3">
      <path id="Clip_11" data-name="Clip 11" d="M18.25,7.329V18.506H7.19A7.26,7.26,0,0,0,0,25.835H0a7.259,7.259,0,0,0,7.19,7.329H18.25v11.27a7.26,7.26,0,0,0,7.19,7.33h0a7.259,7.259,0,0,0,7.19-7.33h0V33.164H43.593a7.258,7.258,0,0,0,7.19-7.329h0a7.259,7.259,0,0,0-7.19-7.329H32.63V7.329A7.257,7.257,0,0,0,25.44,0h0a7.259,7.259,0,0,0-7.19,7.329" fill="none"/>
    </clipPath>
    <clipPath id="clip-path-4">
      <path id="Clip_14" data-name="Clip 14" d="M21.922,7.337V22.288H7.217A7.277,7.277,0,0,0,0,29.626H0a7.276,7.276,0,0,0,7.217,7.337H21.922V51.914a7.275,7.275,0,0,0,7.215,7.337h0a7.275,7.275,0,0,0,7.217-7.337h0V36.963h14.7a7.277,7.277,0,0,0,7.217-7.337h0a7.278,7.278,0,0,0-7.217-7.338h-14.7V7.337A7.276,7.276,0,0,0,29.138,0h0a7.276,7.276,0,0,0-7.215,7.337" fill="none"/>
    </clipPath>
    <clipPath id="clip-path-5">
      <path id="Clip_17" data-name="Clip 17" d="M14.823,7.157v7.336H7.317A7.237,7.237,0,0,0,0,21.65H0a7.236,7.236,0,0,0,7.317,7.157h7.506v7.336A7.238,7.238,0,0,0,22.142,43.3h0a7.237,7.237,0,0,0,7.319-7.157h0V28.808h7.5a7.237,7.237,0,0,0,7.32-7.157h0a7.238,7.238,0,0,0-7.32-7.157h-7.5V7.157A7.237,7.237,0,0,0,22.142,0h0a7.238,7.238,0,0,0-7.319,7.157" transform="translate(0)" fill="none"/>
    </clipPath>
    <clipPath id="clip-path-6">
      <path id="Clip_20" data-name="Clip 20" d="M18.6,7.189V18.154H7.329A7.259,7.259,0,0,0,0,25.346H0a7.258,7.258,0,0,0,7.329,7.19H18.6V43.593a7.257,7.257,0,0,0,7.328,7.19h0a7.259,7.259,0,0,0,7.33-7.19h0V32.536H44.433a7.259,7.259,0,0,0,7.33-7.19h0a7.26,7.26,0,0,0-7.33-7.192H33.262V7.189A7.258,7.258,0,0,0,25.931,0h0A7.256,7.256,0,0,0,18.6,7.189" fill="none"/>
    </clipPath>
    <clipPath id="clip-path-7">
      <path id="Clip_23" data-name="Clip 23" d="M18.6,7.328V18.5H7.33A7.328,7.328,0,0,0,0,25.835H0a7.327,7.327,0,0,0,7.33,7.329H18.6V44.433a7.327,7.327,0,0,0,7.329,7.33h0a7.328,7.328,0,0,0,7.329-7.33h0V33.164h11.18a7.327,7.327,0,0,0,7.329-7.329h0a7.328,7.328,0,0,0-7.329-7.33H33.254V7.328A7.327,7.327,0,0,0,25.925,0h0A7.326,7.326,0,0,0,18.6,7.328" fill="none"/>
    </clipPath>
  </defs>
  <g id="Group_25" data-name="Group 25" transform="translate(0 -0.668)">
    <g id="Group_6" data-name="Group 6" transform="translate(0 0.668)">
      <g id="Group_3" data-name="Group 3" transform="translate(0 0)">
        <path id="Clip_2-2" data-name="Clip 2" d="M0,0H631.318V594.591H0Z" fill="none"/>
        <g id="Group_3-2" data-name="Group 3" clip-path="url(#clip-path)">
          <path id="Fill_1" data-name="Fill 1" d="M181.632,594.593a61.343,61.343,0,0,1-61.184-61.276,64.273,64.273,0,0,1,1.646-14.906,61.675,61.675,0,0,1,59.529-46.371h.15a60.648,60.648,0,0,1,23.578,4.573l41.685-72.306a131.205,131.205,0,0,1-19.06-15.869c-1.131-1.1-2.379-2.353-3.711-3.718-1.915-2.079-3.661-4.075-5.337-6.1l-.094-.119-.1-.124c-16.625-20.4-25.738-44.437-27.084-71.442H146.646c-1.539,17.168-8.682,32.242-21.226,44.8-14.3,14.324-31.776,21.588-51.928,21.588s-37.633-7.263-51.935-21.588S0,319.9,0,299.714,7.253,262.032,21.557,247.7,53.34,226.11,73.492,226.11s37.619,7.265,51.928,21.592c12.509,12.522,19.649,27.533,21.222,44.616h45.04c1.467-26.6,10.637-50.349,27.253-70.576,1.535-1.941,3.283-3.982,5.194-6.065,1.4-1.49,2.674-2.8,3.9-4.006a132.488,132.488,0,0,1,19.54-16.2l-17.98-31.154a72.4,72.4,0,0,1-30.176,6.366c-20.2,0-37.7-7.262-52.027-21.585-14.252-14.3-21.475-31.8-21.469-52.027a77.277,77.277,0,0,1,2.116-17.978,71.207,71.207,0,0,1,19.34-34.023A76.4,76.4,0,0,1,162.418,33.34,73.639,73.639,0,0,1,251.34,45.062a71.249,71.249,0,0,1,19.437,34.054A77.463,77.463,0,0,1,272.8,97.085a70.993,70.993,0,0,1-21.462,52,79.442,79.442,0,0,1-9.148,7.867l17.958,31.11c16.905-8.563,35.8-12.907,56.146-12.914,20.1.018,38.8,4.307,55.584,12.748l44.7-77.584a67.123,67.123,0,0,1-6.239-5.516,59.488,59.488,0,0,1-17.91-43.44,59.257,59.257,0,0,1,17.91-43.334A59.351,59.351,0,0,1,453.7,0h.013a59.341,59.341,0,0,1,43.354,18.031,59.317,59.317,0,0,1,18,43.325,59.606,59.606,0,0,1-18,43.444,59.38,59.38,0,0,1-43.354,18.024,60.982,60.982,0,0,1-24.618-5l-44.621,77.452a130.245,130.245,0,0,1,19.946,16.442c1.194,1.169,2.443,2.451,3.819,3.918,1.758,1.9,3.5,3.893,5.32,6.1a.082.082,0,0,0,.012.017.092.092,0,0,1,.016.023c16.536,20.211,25.668,43.946,27.141,70.545h30.31a80.981,80.981,0,0,1,1.922-12.372,78.13,78.13,0,0,1,21.164-37.34c15.7-15.613,34.851-23.529,56.931-23.529l.031,0,.033,0c22.05,0,41.136,7.909,56.73,23.507a78.4,78.4,0,0,1,21.345,37.333,84.857,84.857,0,0,1,2.125,19.657c.037,22.079-7.859,41.194-23.47,56.816-15.566,15.6-34.615,23.5-56.618,23.5-.042,0-.083,0-.126,0l-.142,0h-.06c-22.008,0-41.1-7.9-56.75-23.494-13.783-13.851-21.558-30.5-23.108-49.471H440.762a125.107,125.107,0,0,1-7.838,38.349A119.619,119.619,0,0,1,413.573,378.5a.181.181,0,0,1-.029.031c-1.678,2.047-3.454,4.085-5.278,6.056-1.385,1.427-2.628,2.676-3.912,3.929a132.675,132.675,0,0,1-19.446,16.142l17.729,30.729a73.076,73.076,0,0,1,30.632-6.45,74.247,74.247,0,0,1,71.374,55.626,78.048,78.048,0,0,1,1.946,18.026,71.029,71.029,0,0,1-21.471,51.972,76.141,76.141,0,0,1-14.994,11.871,70.221,70.221,0,0,1-36.245,9.716l-.619,0c-20.178,0-37.673-7.262-52-21.583-14.254-14.3-21.477-31.8-21.469-52.025a77.132,77.132,0,0,1,2.021-17.938,71.491,71.491,0,0,1,19.439-34.069,80.478,80.478,0,0,1,8.841-7.678L372.357,412.1c-16.872,8.565-35.72,12.907-56.016,12.907H316.3c-20.6,0-39.683-4.449-56.721-13.222l-41.6,72.141a65.568,65.568,0,0,1,6.924,6.056,59.407,59.407,0,0,1,16.235,28.379,64.1,64.1,0,0,1,1.759,14.932,61.513,61.513,0,0,1-61.265,61.3Zm.007-107.94A47.081,47.081,0,0,0,136.284,521.8a49.247,49.247,0,0,0-1.245,11.486,46.743,46.743,0,0,0,46.593,46.7,46.91,46.91,0,0,0,46.677-46.672,49.661,49.661,0,0,0-1.344-11.51,44.568,44.568,0,0,0-12.374-21.484,48.426,48.426,0,0,0-9.751-7.629c-.109-.062-.278-.172-.443-.28a44.255,44.255,0,0,0-22.63-5.752Zm251.631-43.1A57.421,57.421,0,0,0,403.7,451.3c-.108.057-.207.115-.306.172a62.79,62.79,0,0,0-11.825,9.386A56.939,56.939,0,0,0,376,487.992a62.581,62.581,0,0,0-1.624,14.536c-.007,16.443,5.618,30.084,17.2,41.7a58.765,58.765,0,0,0,19.189,13.014,59.777,59.777,0,0,0,22.668,4.289,56.63,56.63,0,0,0,29.241-7.662,61.336,61.336,0,0,0,12.1-9.615C486.393,532.623,492.03,518.982,492,502.55a63.725,63.725,0,0,0-1.545-14.615,56.98,56.98,0,0,0-15.635-27.062C463.237,449.237,449.646,443.57,433.27,443.548ZM551.089,233.686l-.035,0c-18.342,0-33.593,6.3-46.624,19.247a63.793,63.793,0,0,0-17.282,30.389,70.21,70.21,0,0,0-1.807,16.2v.1c-.015,18.3,6.238,33.493,19.117,46.437,12.982,12.934,28.181,19.221,46.465,19.221h.284c18.265,0,33.418-6.29,46.324-19.23,12.953-12.961,19.232-28.175,19.2-46.509a70.431,70.431,0,0,0-1.723-16.259,63.965,63.965,0,0,0-17.473-30.369c-12.942-12.94-28.127-19.23-46.423-19.23Zm-234.794,89.04.027,0,.019,0c23,0,44.05,5.566,62.57,16.543a130.112,130.112,0,0,1,25.521,20.03c.869.842,1.841,1.811,3.059,3.05,12.536-18.02,18.884-38.939,18.862-62.175a114.328,114.328,0,0,0-6.11-37.3A104.524,104.524,0,0,0,402.3,231.033c-1.614-1.955-3.164-3.735-4.738-5.441-1.155-1.23-2.3-2.4-3.4-3.484a114.863,114.863,0,0,0-22.932-17.916c-.121-.068-.284-.172-.447-.284-16.111-9.369-34.443-14.128-54.487-14.146-20.377.009-38.951,4.864-55.205,14.43a114.96,114.96,0,0,0-22.8,17.861c-1.182,1.165-2.322,2.334-3.484,3.574-1.562,1.7-3.085,3.478-4.529,5.3-16,19.475-24.148,42.6-24.221,68.723-.026,23.513,6.32,44.608,18.864,62.7,1.159-1.185,2.159-2.179,3.142-3.127a127.627,127.627,0,0,1,25.343-19.858c18.567-11.036,39.717-16.631,62.863-16.631A.044.044,0,0,1,316.294,322.726Zm-242.8-82c-16.372,0-29.987,5.662-41.622,17.31S14.589,283.32,14.589,299.714,20.241,329.746,31.87,341.4s25.247,17.31,41.622,17.31,29.985-5.662,41.615-17.31,17.282-25.281,17.282-41.683v-.082c-.022-16.37-5.675-29.977-17.282-41.6C103.474,246.385,89.862,240.723,73.492,240.723ZM199.4,38.08a57.1,57.1,0,0,0-29.547,7.834,61.8,61.8,0,0,0-12.167,9.491,56.844,56.844,0,0,0-15.463,27.106,63.078,63.078,0,0,0-1.71,14.591c-.009,16.417,5.616,30.044,17.2,41.659,11.651,11.646,25.291,17.308,41.7,17.308a55.894,55.894,0,0,0,29.283-7.746c.254-.146.492-.268.727-.375a62.146,62.146,0,0,0,11.618-9.2c11.591-11.613,17.211-25.241,17.182-41.663A63.151,63.151,0,0,0,256.589,82.5a56.846,56.846,0,0,0-15.565-27.11C229.421,43.765,215.8,38.1,199.4,38.08ZM453.7,14.611a44.7,44.7,0,0,0-33.051,13.745A44.536,44.536,0,0,0,407.019,61.36,44.742,44.742,0,0,0,420.66,94.469a49.787,49.787,0,0,0,8.456,6.836,7.02,7.02,0,0,1,.74.317,7.489,7.489,0,0,1,1.71,1.155,47.034,47.034,0,0,0,55.183-8.312,44.859,44.859,0,0,0,13.727-33.109,44.623,44.623,0,0,0-13.718-32.985A44.678,44.678,0,0,0,453.7,14.611Z" transform="translate(-0.001 0)" fill="#5524f9"/>
        </g>
      </g>
      <path id="Fill_4" data-name="Fill 4" d="M46.519,93.046A46.523,46.523,0,1,1,93.046,46.523,46.573,46.573,0,0,1,46.519,93.046" transform="translate(269.798 220.231)" fill="#5524f9"/>
    </g>
    <g id="Group_9" data-name="Group 9" transform="translate(159.333 512.698)">
      <path id="Clip_8-2" data-name="Clip 8" d="M14.49,7.157V14.5H7.16A7.156,7.156,0,0,0,0,21.653H0A7.156,7.156,0,0,0,7.16,28.81H14.49v7.336A7.155,7.155,0,0,0,21.648,43.3h0a7.156,7.156,0,0,0,7.159-7.157h0V28.81h7.339A7.156,7.156,0,0,0,43.3,21.653h0A7.156,7.156,0,0,0,36.145,14.5H28.806V7.157A7.155,7.155,0,0,0,21.648,0h0A7.154,7.154,0,0,0,14.49,7.157" transform="translate(0 0)" fill="none"/>
      <g id="Group_9-2" data-name="Group 9" transform="translate(0 0)" clip-path="url(#clip-path-2)">
        <path id="Fill_7" data-name="Fill 7" d="M14.49,7.157V14.5H7.16A7.156,7.156,0,0,0,0,21.653H0A7.156,7.156,0,0,0,7.16,28.81H14.49v7.336A7.155,7.155,0,0,0,21.648,43.3h0a7.156,7.156,0,0,0,7.159-7.157h0V28.81h7.339A7.156,7.156,0,0,0,43.3,21.653h0A7.156,7.156,0,0,0,36.145,14.5H28.806V7.157A7.155,7.155,0,0,0,21.648,0h0A7.154,7.154,0,0,0,14.49,7.157" fill="url(#linear-gradient)"/>
      </g>
    </g>
    <g id="Group_12" data-name="Group 12" transform="translate(407.868 477.836)">
      <path id="Clip_11-2" data-name="Clip 11" d="M18.25,7.329V18.506H7.19A7.26,7.26,0,0,0,0,25.835H0a7.259,7.259,0,0,0,7.19,7.329H18.25v11.27a7.26,7.26,0,0,0,7.19,7.33h0a7.259,7.259,0,0,0,7.19-7.33h0V33.164H43.593a7.258,7.258,0,0,0,7.19-7.329h0a7.259,7.259,0,0,0-7.19-7.329H32.63V7.329A7.257,7.257,0,0,0,25.44,0h0a7.259,7.259,0,0,0-7.19,7.329" transform="translate(0 0)" fill="none"/>
      <g id="Group_12-2" data-name="Group 12" transform="translate(0 0)" clip-path="url(#clip-path-3)">
        <path id="Fill_10" data-name="Fill 10" d="M18.25,7.329V18.506H7.19A7.26,7.26,0,0,0,0,25.835H0a7.259,7.259,0,0,0,7.19,7.329H18.25v11.27a7.26,7.26,0,0,0,7.19,7.33h0a7.259,7.259,0,0,0,7.19-7.33h0V33.164H43.593a7.258,7.258,0,0,0,7.19-7.329h0a7.259,7.259,0,0,0-7.19-7.329H32.63V7.329A7.257,7.257,0,0,0,25.44,0h0a7.259,7.259,0,0,0-7.19,7.329" fill="url(#linear-gradient)"/>
      </g>
    </g>
    <g id="Group_15" data-name="Group 15" transform="translate(521.649 270.118)">
      <path id="Clip_14-2" data-name="Clip 14" d="M21.922,7.337V22.288H7.217A7.277,7.277,0,0,0,0,29.626H0a7.276,7.276,0,0,0,7.217,7.337H21.922V51.914a7.275,7.275,0,0,0,7.215,7.337h0a7.275,7.275,0,0,0,7.217-7.337h0V36.963h14.7a7.277,7.277,0,0,0,7.217-7.337h0a7.278,7.278,0,0,0-7.217-7.338h-14.7V7.337A7.276,7.276,0,0,0,29.138,0h0a7.276,7.276,0,0,0-7.215,7.337" transform="translate(0 0)" fill="none"/>
      <g id="Group_15-2" data-name="Group 15" transform="translate(0 0)" clip-path="url(#clip-path-4)">
        <path id="Fill_13" data-name="Fill 13" d="M21.922,7.337V22.288H7.217A7.277,7.277,0,0,0,0,29.626H0a7.276,7.276,0,0,0,7.217,7.337H21.922V51.914a7.275,7.275,0,0,0,7.215,7.337h0a7.275,7.275,0,0,0,7.217-7.337h0V36.963h14.7a7.277,7.277,0,0,0,7.217-7.337h0a7.278,7.278,0,0,0-7.217-7.338h-14.7V7.337A7.276,7.276,0,0,0,29.138,0h0a7.276,7.276,0,0,0-7.215,7.337" fill="url(#linear-gradient)"/>
      </g>
    </g>
    <g id="Group_18" data-name="Group 18" transform="translate(432.26 39.829)">
      <path id="Clip_17-2" data-name="Clip 17" d="M14.823,7.157v7.336H7.317A7.237,7.237,0,0,0,0,21.65H0a7.236,7.236,0,0,0,7.317,7.157h7.506v7.336A7.238,7.238,0,0,0,22.142,43.3h0a7.237,7.237,0,0,0,7.319-7.157h0V28.808h7.5a7.237,7.237,0,0,0,7.32-7.157h0a7.238,7.238,0,0,0-7.32-7.157h-7.5V7.157A7.237,7.237,0,0,0,22.142,0h0a7.238,7.238,0,0,0-7.319,7.157" transform="translate(0 0)" fill="none"/>
      <g id="Group_18-2" data-name="Group 18" transform="translate(0 0)" clip-path="url(#clip-path-5)">
        <path id="Fill_16" data-name="Fill 16" d="M14.823,7.157v7.336H7.317A7.237,7.237,0,0,0,0,21.65H0a7.236,7.236,0,0,0,7.317,7.157h7.506v7.336A7.238,7.238,0,0,0,22.142,43.3h0a7.237,7.237,0,0,0,7.319-7.157h0V28.808h7.5a7.237,7.237,0,0,0,7.32-7.157h0a7.238,7.238,0,0,0-7.32-7.157h-7.5V7.157A7.237,7.237,0,0,0,22.142,0h0a7.238,7.238,0,0,0-7.319,7.157" transform="translate(0)" fill="url(#linear-gradient)"/>
      </g>
    </g>
    <g id="Group_21" data-name="Group 21" transform="translate(172.493 71.787)">
      <path id="Clip_20-2" data-name="Clip 20" d="M18.6,7.189V18.154H7.329A7.259,7.259,0,0,0,0,25.346H0a7.258,7.258,0,0,0,7.329,7.19H18.6V43.593a7.257,7.257,0,0,0,7.328,7.19h0a7.259,7.259,0,0,0,7.33-7.19h0V32.536H44.433a7.259,7.259,0,0,0,7.33-7.19h0a7.26,7.26,0,0,0-7.33-7.192H33.262V7.189A7.258,7.258,0,0,0,25.931,0h0A7.256,7.256,0,0,0,18.6,7.189" transform="translate(0 0)" fill="none"/>
      <g id="Group_21-2" data-name="Group 21" transform="translate(0 0)" clip-path="url(#clip-path-6)">
        <path id="Fill_19" data-name="Fill 19" d="M18.6,7.189V18.154H7.329A7.259,7.259,0,0,0,0,25.346H0a7.258,7.258,0,0,0,7.329,7.19H18.6V43.593a7.257,7.257,0,0,0,7.328,7.19h0a7.259,7.259,0,0,0,7.33-7.19h0V32.536H44.433a7.259,7.259,0,0,0,7.33-7.19h0a7.26,7.26,0,0,0-7.33-7.192H33.262V7.189A7.258,7.258,0,0,0,25.931,0h0A7.256,7.256,0,0,0,18.6,7.189" fill="url(#linear-gradient)"/>
      </g>
    </g>
    <g id="Group_24" data-name="Group 24" transform="translate(47.669 275.862)">
      <path id="Clip_23-2" data-name="Clip 23" d="M18.6,7.328V18.5H7.33A7.328,7.328,0,0,0,0,25.835H0a7.327,7.327,0,0,0,7.33,7.329H18.6V44.433a7.327,7.327,0,0,0,7.329,7.33h0a7.328,7.328,0,0,0,7.329-7.33h0V33.164h11.18a7.327,7.327,0,0,0,7.329-7.329h0a7.328,7.328,0,0,0-7.329-7.33H33.254V7.328A7.327,7.327,0,0,0,25.925,0h0A7.326,7.326,0,0,0,18.6,7.328" transform="translate(0 0)" fill="none"/>
      <g id="Group_24-2" data-name="Group 24" transform="translate(0 0)" clip-path="url(#clip-path-7)">
        <path id="Fill_22" data-name="Fill 22" d="M18.6,7.328V18.5H7.33A7.328,7.328,0,0,0,0,25.835H0a7.327,7.327,0,0,0,7.33,7.329H18.6V44.433a7.327,7.327,0,0,0,7.329,7.33h0a7.328,7.328,0,0,0,7.329-7.33h0V33.164h11.18a7.327,7.327,0,0,0,7.329-7.329h0a7.328,7.328,0,0,0-7.329-7.33H33.254V7.328A7.327,7.327,0,0,0,25.925,0h0A7.326,7.326,0,0,0,18.6,7.328" fill="url(#linear-gradient)"/>
      </g>
    </g>
  </g>
</svg>
